<svg width="120px" height="132px" viewBox="0 0 120 132" preserveAspectRatio="xMinYMin meet" xmlns="http://www.w3.org/2000/svg" xmlns:xlink="http://www.w3.org/1999/xlink" version="1.1"><defs><filter id="receiptlineinvert" x="0" y="0" width="100%" height="100%"><feFlood flood-color="#000"/><feComposite in="SourceGraphic" operator="xor"/></filter></defs><g font-family="'Courier New', 'Courier', monospace" fill="#000" font-size="24" dominant-baseline="text-after-edge"><g transform="translate(18,0)"><path d="M0,0l4,0 0,4 -4,0 0,-4z M4,0l4,0 0,4 -4,0 0,-4z M8,0l4,0 0,4 -4,0 0,-4z M12,0l4,0 0,4 -4,0 0,-4z M16,0l4,0 0,4 -4,0 0,-4z M20,0l4,0 0,4 -4,0 0,-4z M24,0l4,0 0,4 -4,0 0,-4z M36,0l4,0 0,4 -4,0 0,-4z M40,0l4,0 0,4 -4,0 0,-4z M44,0l4,0 0,4 -4,0 0,-4z M48,0l4,0 0,4 -4,0 0,-4z M56,0l4,0 0,4 -4,0 0,-4z M60,0l4,0 0,4 -4,0 0,-4z M64,0l4,0 0,4 -4,0 0,-4z M68,0l4,0 0,4 -4,0 0,-4z M72,0l4,0 0,4 -4,0 0,-4z M76,0l4,0 0,4 -4,0 0,-4z M80,0l4,0 0,4 -4,0 0,-4z M0,4l4,0 0,4 -4,0 0,-4z M24,4l4,0 0,4 -4,0 0,-4z M36,4l4,0 0,4 -4,0 0,-4z M44,4l4,0 0,4 -4,0 0,-4z M56,4l4,0 0,4 -4,0 0,-4z M80,4l4,0 0,4 -4,0 0,-4z M0,8l4,0 0,4 -4,0 0,-4z M8,8l4,0 0,4 -4,0 0,-4z M12,8l4,0 0,4 -4,0 0,-4z M16,8l4,0 0,4 -4,0 0,-4z M24,8l4,0 0,4 -4,0 0,-4z M36,8l4,0 0,4 -4,0 0,-4z M56,8l4,0 0,4 -4,0 0,-4z M64,8l4,0 0,4 -4,0 0,-4z M68,8l4,0 0,4 -4,0 0,-4z M72,8l4,0 0,4 -4,0 0,-4z M80,8l4,0 0,4 -4,0 0,-4z M0,12l4,0 0,4 -4,0 0,-4z M8,12l4,0 0,4 -4,0 0,-4z M12,12l4,0 0,4 -4,0 0,-4z M16,12l4,0 0,4 -4,0 0,-4z M24,12l4,0 0,4 -4,0 0,-4z M32,12l4,0 0,4 -4,0 0,-4z M36,12l4,0 0,4 -4,0 0,-4z M40,12l4,0 0,4 -4,0 0,-4z M44,12l4,0 0,4 -4,0 0,-4z M56,12l4,0 0,4 -4,0 0,-4z M64,12l4,0 0,4 -4,0 0,-4z M68,12l4,0 0,4 -4,0 0,-4z M72,12l4,0 0,4 -4,0 0,-4z M80,12l4,0 0,4 -4,0 0,-4z M0,16l4,0 0,4 -4,0 0,-4z M8,16l4,0 0,4 -4,0 0,-4z M12,16l4,0 0,4 -4,0 0,-4z M16,16l4,0 0,4 -4,0 0,-4z M24,16l4,0 0,4 -4,0 0,-4z M32,16l4,0 0,4 -4,0 0,-4z M40,16l4,0 0,4 -4,0 0,-4z M44,16l4,0 0,4 -4,0 0,-4z M48,16l4,0 0,4 -4,0 0,-4z M56,16l4,0 0,4 -4,0 0,-4z M64,16l4,0 0,4 -4,0 0,-4z M68,16l4,0 0,4 -4,0 0,-4z M72,16l4,0 0,4 -4,0 0,-4z M80,16l4,0 0,4 -4,0 0,-4z M0,20l4,0 0,4 -4,0 0,-4z M24,20l4,0 0,4 -4,0 0,-4z M40,20l4,0 0,4 -4,0 0,-4z M48,20l4,0 0,4 -4,0 0,-4z M56,20l4,0 0,4 -4,0 0,-4z M80,20l4,0 0,4 -4,0 0,-4z M0,24l4,0 0,4 -4,0 0,-4z M4,24l4,0 0,4 -4,0 0,-4z M8,24l4,0 0,4 -4,0 0,-4z M12,24l4,0 0,4 -4,0 0,-4z M16,24l4,0 0,4 -4,0 0,-4z M20,24l4,0 0,4 -4,0 0,-4z M24,24l4,0 0,4 -4,0 0,-4z M32,24l4,0 0,4 -4,0 0,-4z M40,24l4,0 0,4 -4,0 0,-4z M48,24l4,0 0,4 -4,0 0,-4z M56,24l4,0 0,4 -4,0 0,-4z M60,24l4,0 0,4 -4,0 0,-4z M64,24l4,0 0,4 -4,0 0,-4z M68,24l4,0 0,4 -4,0 0,-4z M72,24l4,0 0,4 -4,0 0,-4z M76,24l4,0 0,4 -4,0 0,-4z M80,24l4,0 0,4 -4,0 0,-4z M36,28l4,0 0,4 -4,0 0,-4z M40,28l4,0 0,4 -4,0 0,-4z M44,28l4,0 0,4 -4,0 0,-4z M48,28l4,0 0,4 -4,0 0,-4z M0,32l4,0 0,4 -4,0 0,-4z M4,32l4,0 0,4 -4,0 0,-4z M20,32l4,0 0,4 -4,0 0,-4z M24,32l4,0 0,4 -4,0 0,-4z M28,32l4,0 0,4 -4,0 0,-4z M36,32l4,0 0,4 -4,0 0,-4z M48,32l4,0 0,4 -4,0 0,-4z M64,32l4,0 0,4 -4,0 0,-4z M68,32l4,0 0,4 -4,0 0,-4z M16,36l4,0 0,4 -4,0 0,-4z M20,36l4,0 0,4 -4,0 0,-4z M32,36l4,0 0,4 -4,0 0,-4z M48,36l4,0 0,4 -4,0 0,-4z M56,36l4,0 0,4 -4,0 0,-4z M64,36l4,0 0,4 -4,0 0,-4z M72,36l4,0 0,4 -4,0 0,-4z M76,36l4,0 0,4 -4,0 0,-4z M0,40l4,0 0,4 -4,0 0,-4z M8,40l4,0 0,4 -4,0 0,-4z M20,40l4,0 0,4 -4,0 0,-4z M24,40l4,0 0,4 -4,0 0,-4z M40,40l4,0 0,4 -4,0 0,-4z M44,40l4,0 0,4 -4,0 0,-4z M52,40l4,0 0,4 -4,0 0,-4z M64,40l4,0 0,4 -4,0 0,-4z M68,40l4,0 0,4 -4,0 0,-4z M72,40l4,0 0,4 -4,0 0,-4z M0,44l4,0 0,4 -4,0 0,-4z M4,44l4,0 0,4 -4,0 0,-4z M8,44l4,0 0,4 -4,0 0,-4z M12,44l4,0 0,4 -4,0 0,-4z M16,44l4,0 0,4 -4,0 0,-4z M20,44l4,0 0,4 -4,0 0,-4z M28,44l4,0 0,4 -4,0 0,-4z M32,44l4,0 0,4 -4,0 0,-4z M36,44l4,0 0,4 -4,0 0,-4z M64,44l4,0 0,4 -4,0 0,-4z M72,44l4,0 0,4 -4,0 0,-4z M76,44l4,0 0,4 -4,0 0,-4z M0,48l4,0 0,4 -4,0 0,-4z M8,48l4,0 0,4 -4,0 0,-4z M16,48l4,0 0,4 -4,0 0,-4z M24,48l4,0 0,4 -4,0 0,-4z M32,48l4,0 0,4 -4,0 0,-4z M36,48l4,0 0,4 -4,0 0,-4z M40,48l4,0 0,4 -4,0 0,-4z M56,48l4,0 0,4 -4,0 0,-4z M76,48l4,0 0,4 -4,0 0,-4z M80,48l4,0 0,4 -4,0 0,-4z M32,52l4,0 0,4 -4,0 0,-4z M40,52l4,0 0,4 -4,0 0,-4z M44,52l4,0 0,4 -4,0 0,-4z M48,52l4,0 0,4 -4,0 0,-4z M52,52l4,0 0,4 -4,0 0,-4z M56,52l4,0 0,4 -4,0 0,-4z M68,52l4,0 0,4 -4,0 0,-4z M72,52l4,0 0,4 -4,0 0,-4z M76,52l4,0 0,4 -4,0 0,-4z M80,52l4,0 0,4 -4,0 0,-4z M0,56l4,0 0,4 -4,0 0,-4z M4,56l4,0 0,4 -4,0 0,-4z M8,56l4,0 0,4 -4,0 0,-4z M12,56l4,0 0,4 -4,0 0,-4z M16,56l4,0 0,4 -4,0 0,-4z M20,56l4,0 0,4 -4,0 0,-4z M24,56l4,0 0,4 -4,0 0,-4z M32,56l4,0 0,4 -4,0 0,-4z M36,56l4,0 0,4 -4,0 0,-4z M40,56l4,0 0,4 -4,0 0,-4z M48,56l4,0 0,4 -4,0 0,-4z M56,56l4,0 0,4 -4,0 0,-4z M60,56l4,0 0,4 -4,0 0,-4z M72,56l4,0 0,4 -4,0 0,-4z M0,60l4,0 0,4 -4,0 0,-4z M24,60l4,0 0,4 -4,0 0,-4z M32,60l4,0 0,4 -4,0 0,-4z M36,60l4,0 0,4 -4,0 0,-4z M40,60l4,0 0,4 -4,0 0,-4z M44,60l4,0 0,4 -4,0 0,-4z M48,60l4,0 0,4 -4,0 0,-4z M52,60l4,0 0,4 -4,0 0,-4z M64,60l4,0 0,4 -4,0 0,-4z M72,60l4,0 0,4 -4,0 0,-4z M0,64l4,0 0,4 -4,0 0,-4z M8,64l4,0 0,4 -4,0 0,-4z M12,64l4,0 0,4 -4,0 0,-4z M16,64l4,0 0,4 -4,0 0,-4z M24,64l4,0 0,4 -4,0 0,-4z M36,64l4,0 0,4 -4,0 0,-4z M40,64l4,0 0,4 -4,0 0,-4z M48,64l4,0 0,4 -4,0 0,-4z M68,64l4,0 0,4 -4,0 0,-4z M76,64l4,0 0,4 -4,0 0,-4z M0,68l4,0 0,4 -4,0 0,-4z M8,68l4,0 0,4 -4,0 0,-4z M12,68l4,0 0,4 -4,0 0,-4z M16,68l4,0 0,4 -4,0 0,-4z M24,68l4,0 0,4 -4,0 0,-4z M36,68l4,0 0,4 -4,0 0,-4z M48,68l4,0 0,4 -4,0 0,-4z M60,68l4,0 0,4 -4,0 0,-4z M64,68l4,0 0,4 -4,0 0,-4z M68,68l4,0 0,4 -4,0 0,-4z M72,68l4,0 0,4 -4,0 0,-4z M0,72l4,0 0,4 -4,0 0,-4z M8,72l4,0 0,4 -4,0 0,-4z M12,72l4,0 0,4 -4,0 0,-4z M16,72l4,0 0,4 -4,0 0,-4z M24,72l4,0 0,4 -4,0 0,-4z M36,72l4,0 0,4 -4,0 0,-4z M40,72l4,0 0,4 -4,0 0,-4z M56,72l4,0 0,4 -4,0 0,-4z M60,72l4,0 0,4 -4,0 0,-4z M64,72l4,0 0,4 -4,0 0,-4z M72,72l4,0 0,4 -4,0 0,-4z M76,72l4,0 0,4 -4,0 0,-4z M80,72l4,0 0,4 -4,0 0,-4z M0,76l4,0 0,4 -4,0 0,-4z M24,76l4,0 0,4 -4,0 0,-4z M32,76l4,0 0,4 -4,0 0,-4z M40,76l4,0 0,4 -4,0 0,-4z M60,76l4,0 0,4 -4,0 0,-4z M72,76l4,0 0,4 -4,0 0,-4z M0,80l4,0 0,4 -4,0 0,-4z M4,80l4,0 0,4 -4,0 0,-4z M8,80l4,0 0,4 -4,0 0,-4z M12,80l4,0 0,4 -4,0 0,-4z M16,80l4,0 0,4 -4,0 0,-4z M20,80l4,0 0,4 -4,0 0,-4z M24,80l4,0 0,4 -4,0 0,-4z M32,80l4,0 0,4 -4,0 0,-4z M36,80l4,0 0,4 -4,0 0,-4z M40,80l4,0 0,4 -4,0 0,-4z M44,80l4,0 0,4 -4,0 0,-4z M52,80l4,0 0,4 -4,0 0,-4z M60,80l4,0 0,4 -4,0 0,-4z M68,80l4,0 0,4 -4,0 0,-4z M76,80l4,0 0,4 -4,0 0,-4z " stroke="transparent" fill="black"/></g><g transform="translate(0,108)"><text x="30,42,54,66,78">hello</text></g><g transform="translate(0,132)"><text x="0">&#xa0;</text></g></g></svg>
